<svg width="179" height="56" viewBox="0 0 179 56" fill="none" xmlns="http://www.w3.org/2000/svg">
<path d="M36 38C41.5228 38 46 33.5228 46 28C46 22.4772 41.5228 18 36 18C30.4772 18 26 22.4772 26 28C26 33.5228 30.4772 38 36 38Z" stroke="#7C3AED" stroke-width="2" stroke-linecap="round" stroke-linejoin="round"/>
<path d="M34 24L40 28L34 32V24Z" stroke="#7C3AED" stroke-width="2" stroke-linecap="round" stroke-linejoin="round"/>
<path d="M59.87 34L56.5859 22.3636H58.853L60.9496 30.9148H61.0575L63.2962 22.3636H65.3587L67.603 30.9205H67.7053L69.8018 22.3636H72.0689L68.7848 34H66.7053L64.3757 25.8352H64.2848L61.9496 34H59.87ZM75.0604 34.1761C74.5073 34.1761 74.0092 34.0777 73.5661 33.8807C73.1267 33.6799 72.7782 33.3845 72.5206 32.9943C72.2668 32.6042 72.1399 32.1231 72.1399 31.5511C72.1399 31.0587 72.2308 30.6515 72.4126 30.3295C72.5945 30.0076 72.8426 29.75 73.157 29.5568C73.4714 29.3636 73.8255 29.2178 74.2195 29.1193C74.6172 29.017 75.0282 28.9432 75.4524 28.8977C75.9638 28.8447 76.3786 28.7973 76.6967 28.7557C77.0149 28.7102 77.246 28.642 77.3899 28.5511C77.5376 28.4564 77.6115 28.3106 77.6115 28.1136V28.0795C77.6115 27.6515 77.4846 27.3201 77.2308 27.0852C76.977 26.8504 76.6115 26.733 76.1342 26.733C75.6304 26.733 75.2308 26.8428 74.9354 27.0625C74.6437 27.2822 74.4467 27.5417 74.3445 27.8409L72.424 27.5682C72.5755 27.0379 72.8255 26.5947 73.174 26.2386C73.5225 25.8788 73.9486 25.6098 74.4524 25.4318C74.9562 25.25 75.513 25.1591 76.1229 25.1591C76.5433 25.1591 76.9619 25.2083 77.3786 25.3068C77.7952 25.4053 78.1759 25.5682 78.5206 25.7955C78.8653 26.0189 79.1418 26.3239 79.3501 26.7102C79.5623 27.0966 79.6683 27.5795 79.6683 28.1591V34H77.6911V32.8011H77.6229C77.4979 33.0436 77.3217 33.2708 77.0945 33.483C76.871 33.6913 76.5888 33.8598 76.2479 33.9886C75.9107 34.1136 75.5149 34.1761 75.0604 34.1761ZM75.5945 32.6648C76.0073 32.6648 76.3653 32.5833 76.6683 32.4205C76.9714 32.2538 77.2043 32.0341 77.3672 31.7614C77.5339 31.4886 77.6172 31.1913 77.6172 30.8693V29.8409C77.5528 29.8939 77.4429 29.9432 77.2876 29.9886C77.1361 30.0341 76.9657 30.0739 76.7763 30.108C76.5869 30.142 76.3994 30.1723 76.2138 30.1989C76.0282 30.2254 75.8672 30.2481 75.7308 30.267C75.424 30.3087 75.1494 30.3769 74.907 30.4716C74.6645 30.5663 74.4732 30.6989 74.3331 30.8693C74.1929 31.036 74.1229 31.2519 74.1229 31.517C74.1229 31.8958 74.2611 32.1818 74.5376 32.375C74.8142 32.5682 75.1664 32.6648 75.5945 32.6648ZM86.0945 25.2727V26.8636H81.0774V25.2727H86.0945ZM82.3161 23.1818H84.3729V31.375C84.3729 31.6515 84.4145 31.8636 84.4979 32.0114C84.585 32.1553 84.6986 32.2538 84.8388 32.3068C84.9789 32.3598 85.1342 32.3864 85.3047 32.3864C85.4335 32.3864 85.5509 32.3769 85.657 32.358C85.7668 32.339 85.8501 32.322 85.907 32.3068L86.2536 33.9148C86.1437 33.9527 85.9865 33.9943 85.782 34.0398C85.5812 34.0852 85.335 34.1117 85.0433 34.1193C84.5282 34.1345 84.0642 34.0568 83.6513 33.8864C83.2384 33.7121 82.9107 33.4432 82.6683 33.0795C82.4297 32.7159 82.3123 32.2614 82.3161 31.7159V23.1818ZM91.5277 34.1705C90.6565 34.1705 89.9084 33.9792 89.2834 33.5966C88.6622 33.214 88.183 32.6856 87.8459 32.0114C87.5125 31.3333 87.3459 30.553 87.3459 29.6705C87.3459 28.7841 87.5163 28.0019 87.8572 27.3239C88.1982 26.642 88.6792 26.1117 89.3004 25.733C89.9254 25.3504 90.6641 25.1591 91.5163 25.1591C92.2247 25.1591 92.8516 25.2898 93.397 25.5511C93.9463 25.8087 94.3838 26.1742 94.7095 26.6477C95.0353 27.1174 95.2209 27.6667 95.2663 28.2955H93.3004C93.2209 27.875 93.0315 27.5246 92.7322 27.2443C92.4368 26.9602 92.041 26.8182 91.5447 26.8182C91.1243 26.8182 90.755 26.9318 90.4368 27.1591C90.1186 27.3826 89.8705 27.7045 89.6925 28.125C89.5182 28.5455 89.4311 29.0492 89.4311 29.6364C89.4311 30.2311 89.5182 30.7424 89.6925 31.1705C89.8667 31.5947 90.111 31.9223 90.4254 32.1534C90.7436 32.3807 91.1167 32.4943 91.5447 32.4943C91.8478 32.4943 92.1186 32.4375 92.3572 32.3239C92.5997 32.2064 92.8023 32.0379 92.9652 31.8182C93.1281 31.5985 93.2398 31.3314 93.3004 31.017H95.2663C95.2171 31.6345 95.0353 32.1818 94.7209 32.6591C94.4065 33.1326 93.9785 33.5038 93.4368 33.7727C92.8951 34.0379 92.2588 34.1705 91.5277 34.1705ZM99.0121 28.8864V34H96.9553V22.3636H98.9666V26.7557H99.0689C99.2734 26.2633 99.5897 25.875 100.018 25.5909C100.45 25.303 100.999 25.1591 101.665 25.1591C102.272 25.1591 102.8 25.286 103.251 25.5398C103.701 25.7936 104.05 26.1648 104.296 26.6534C104.546 27.142 104.671 27.7386 104.671 28.4432V34H102.614V28.7614C102.614 28.1742 102.463 27.7178 102.16 27.392C101.861 27.0625 101.44 26.8977 100.898 26.8977C100.535 26.8977 100.209 26.9773 99.9212 27.1364C99.6371 27.2917 99.4136 27.517 99.2507 27.8125C99.0916 28.108 99.0121 28.4659 99.0121 28.8864ZM112.384 22.3636L115.413 31.5227H115.532L118.555 22.3636H120.873L116.771 34H114.168L110.072 22.3636H112.384ZM122.315 34V25.2727H124.371V34H122.315ZM123.349 24.0341C123.023 24.0341 122.743 23.9261 122.508 23.7102C122.273 23.4905 122.156 23.2273 122.156 22.9205C122.156 22.6098 122.273 22.3466 122.508 22.1307C122.743 21.911 123.023 21.8011 123.349 21.8011C123.678 21.8011 123.959 21.911 124.19 22.1307C124.424 22.3466 124.542 22.6098 124.542 22.9205C124.542 23.2273 124.424 23.4905 124.19 23.7102C123.959 23.9261 123.678 24.0341 123.349 24.0341ZM129.725 34.1534C129.04 34.1534 128.426 33.9773 127.884 33.625C127.343 33.2727 126.915 32.7614 126.6 32.0909C126.286 31.4205 126.129 30.6061 126.129 29.6477C126.129 28.678 126.288 27.8598 126.606 27.1932C126.928 26.5227 127.362 26.017 127.907 25.6761C128.452 25.3314 129.06 25.1591 129.731 25.1591C130.242 25.1591 130.663 25.2462 130.992 25.4205C131.322 25.5909 131.583 25.7973 131.776 26.0398C131.969 26.2784 132.119 26.5038 132.225 26.7159H132.31V22.3636H134.373V34H132.35V32.625H132.225C132.119 32.8371 131.966 33.0625 131.765 33.3011C131.564 33.536 131.299 33.7367 130.969 33.9034C130.64 34.0701 130.225 34.1534 129.725 34.1534ZM130.299 32.4659C130.735 32.4659 131.106 32.3485 131.413 32.1136C131.719 31.875 131.952 31.5436 132.112 31.1193C132.271 30.6951 132.35 30.2008 132.35 29.6364C132.35 29.072 132.271 28.5814 132.112 28.1648C131.956 27.7481 131.725 27.4242 131.418 27.1932C131.115 26.9621 130.742 26.8466 130.299 26.8466C129.841 26.8466 129.458 26.9659 129.151 27.2045C128.844 27.4432 128.613 27.7727 128.458 28.1932C128.303 28.6136 128.225 29.0947 128.225 29.6364C128.225 30.1818 128.303 30.6686 128.458 31.0966C128.617 31.5208 128.85 31.8561 129.157 32.1023C129.468 32.3447 129.848 32.4659 130.299 32.4659ZM140.428 34.1705C139.553 34.1705 138.798 33.9886 138.161 33.625C137.529 33.2576 137.042 32.7386 136.701 32.0682C136.36 31.3939 136.19 30.6004 136.19 29.6875C136.19 28.7898 136.36 28.0019 136.701 27.3239C137.046 26.642 137.527 26.1117 138.144 25.733C138.762 25.3504 139.487 25.1591 140.32 25.1591C140.858 25.1591 141.366 25.2462 141.843 25.4205C142.324 25.5909 142.748 25.8561 143.116 26.2159C143.487 26.5758 143.779 27.0341 143.991 27.5909C144.203 28.1439 144.309 28.803 144.309 29.5682V30.1989H137.156V28.8125H142.337C142.334 28.4186 142.248 28.0682 142.082 27.7614C141.915 27.4508 141.682 27.2064 141.383 27.0284C141.087 26.8504 140.743 26.7614 140.349 26.7614C139.928 26.7614 139.559 26.8636 139.241 27.0682C138.923 27.2689 138.674 27.5341 138.496 27.8636C138.322 28.1894 138.233 28.5473 138.229 28.9375V30.1477C138.229 30.6553 138.322 31.0909 138.508 31.4545C138.693 31.8144 138.953 32.0909 139.286 32.2841C139.62 32.4735 140.01 32.5682 140.457 32.5682C140.756 32.5682 141.027 32.5265 141.269 32.4432C141.512 32.3561 141.722 32.2292 141.9 32.0625C142.078 31.8958 142.212 31.6894 142.303 31.4432L144.224 31.6591C144.103 32.1667 143.871 32.6098 143.531 32.9886C143.193 33.3636 142.762 33.6553 142.235 33.8636C141.709 34.0682 141.106 34.1705 140.428 34.1705ZM149.856 34.1705C149.004 34.1705 148.265 33.983 147.64 33.608C147.015 33.233 146.53 32.7083 146.185 32.0341C145.844 31.3598 145.674 30.572 145.674 29.6705C145.674 28.7689 145.844 27.9792 146.185 27.3011C146.53 26.6231 147.015 26.0966 147.64 25.7216C148.265 25.3466 149.004 25.1591 149.856 25.1591C150.708 25.1591 151.447 25.3466 152.072 25.7216C152.697 26.0966 153.18 26.6231 153.521 27.3011C153.865 27.9792 154.038 28.7689 154.038 29.6705C154.038 30.572 153.865 31.3598 153.521 32.0341C153.18 32.7083 152.697 33.233 152.072 33.608C151.447 33.983 150.708 34.1705 149.856 34.1705ZM149.867 32.5227C150.329 32.5227 150.716 32.3958 151.026 32.142C151.337 31.8845 151.568 31.5398 151.719 31.108C151.875 30.6761 151.952 30.1951 151.952 29.6648C151.952 29.1307 151.875 28.6477 151.719 28.2159C151.568 27.7803 151.337 27.4337 151.026 27.1761C150.716 26.9186 150.329 26.7898 149.867 26.7898C149.394 26.7898 149 26.9186 148.685 27.1761C148.375 27.4337 148.142 27.7803 147.987 28.2159C147.835 28.6477 147.759 29.1307 147.759 29.6648C147.759 30.1951 147.835 30.6761 147.987 31.108C148.142 31.5398 148.375 31.8845 148.685 32.142C149 32.3958 149.394 32.5227 149.867 32.5227Z" fill="#7C3AED"/>
</svg>
